<?xml version="1.0" encoding="UTF-8" standalone="no"?>
<svg
   xmlns:dc="http://purl.org/dc/elements/1.1/"
   xmlns:cc="http://creativecommons.org/ns#"
   xmlns:rdf="http://www.w3.org/1999/02/22-rdf-syntax-ns#"
   xmlns:svg="http://www.w3.org/2000/svg"
   xmlns="http://www.w3.org/2000/svg"
   xmlns:sodipodi="http://sodipodi.sourceforge.net/DTD/sodipodi-0.dtd"
   xmlns:inkscape="http://www.inkscape.org/namespaces/inkscape"
   enable-background="new 0 0 150 150"
   height="150px"
   id="Layer_1"
   version="1.1"
   viewBox="0 0 150 150"
   width="150px"
   xml:space="preserve"
   inkscape:version="0.91 r13725"
   sodipodi:docname="logo-github.svg"><metadata
     id="metadata4159"><rdf:RDF><cc:Work
         rdf:about=""><dc:format>image/svg+xml</dc:format><dc:type
           rdf:resource="http://purl.org/dc/dcmitype/StillImage" /></cc:Work></rdf:RDF></metadata><defs
     id="defs4157" /><sodipodi:namedview
     pagecolor="#ffffff"
     bordercolor="#666666"
     borderopacity="1"
     objecttolerance="10"
     gridtolerance="10"
     guidetolerance="10"
     inkscape:pageopacity="0"
     inkscape:pageshadow="2"
     inkscape:window-width="1920"
     inkscape:window-height="1027"
     id="namedview4155"
     showgrid="false"
     inkscape:zoom="4.1247896"
     inkscape:cx="61.117928"
     inkscape:cy="79.082962"
     inkscape:window-x="1912"
     inkscape:window-y="-8"
     inkscape:window-maximized="1"
     inkscape:current-layer="Layer_1" /><circle
     style="opacity:0.1;fill:#414042"
     id="circle4139"
     r="75"
     cy="75.042"
     cx="74.987" /><circle
     style="fill:#282829;fill-opacity:1"
     id="circle4143"
     r="65.487"
     cy="75.042"
     cx="74.987" /><path
     d="M100.564,32.907c1.418,3.233,2.342,8.598,0.969,12.528c5.628,4.804,7.325,14.621,4.843,26.02  c-2.001,9.187-11.564,13.478-21.551,14.21c1.073,2.337,3.13,3.229,3.634,6.987c0.746,5.616-1.173,13.842,0.724,17.583  c0.904,1.793,2.389,1.845,3.392,3.373c-2.451,2.899-8.511-0.322-9.206-3.373c-1.182-5.224,1.803-13.323-1.453-16.86  c0.229,5.695-1.343,13.697,0.245,18.789c0.626,1.999,2.433,2.773,1.936,4.579c-11.369,1.154-6.621-14.723-8.479-24.091  c-1.709,0.123-0.961,2.569-0.965,3.615c-0.05,9.15,1.867,21.699-7.991,20.476c-0.293-1.923,1.323-2.58,1.934-4.336  c1.802-5.149-0.337-12.821,0.49-19.032c-3.767,2.835,0.398,12.746-1.937,17.824c-1.346,2.919-5.676,4.194-8.96,2.892  c0.429-2.182,2.678-1.828,3.625-3.855c1.335-2.829,0.016-6.901,0.49-11.082c-6.968,1.391-12.373-0.2-15.017-4.576  c-1.183-1.963-1.479-4.277-2.908-6.022c-1.423-1.74-3.694-1.973-4.356-4.33c8.629-2.08,8.963,8.877,16.711,9.15  c2.374,0.085,3.613-0.691,5.81-1.204c0.613-2.763,1.935-4.824,3.876-6.269c-9.642-1.321-20.054-4.944-22.764-14.206  c-2.71-9.264-1.658-20.59,3.874-25.297c-1.563-3.948-1.076-10.414,0.971-13.492c6.176,0.28,9.922,2.972,13.804,5.543  c4.814-1.369,9.874-2.05,16.468-1.686c2.774,0.153,5.655,1.396,7.748,1.199c2.047-0.19,4.309-2.489,6.291-3.368  C95.409,33.454,97.599,33.018,100.564,32.907L100.564,32.907z"
     id="path4153"
     fill="#FFFFFF" /></svg>