<?xml version="1.0" encoding="UTF-8" standalone="no"?>
<svg
   xmlns:dc="http://purl.org/dc/elements/1.1/"
   xmlns:cc="http://creativecommons.org/ns#"
   xmlns:rdf="http://www.w3.org/1999/02/22-rdf-syntax-ns#"
   xmlns:svg="http://www.w3.org/2000/svg"
   xmlns="http://www.w3.org/2000/svg"
   xmlns:sodipodi="http://sodipodi.sourceforge.net/DTD/sodipodi-0.dtd"
   xmlns:inkscape="http://www.inkscape.org/namespaces/inkscape"
   enable-background="new 0 0 150 150"
   height="150px"
   id="Layer_1"
   version="1.1"
   viewBox="0 0 150 150"
   width="150px"
   xml:space="preserve"
   inkscape:version="0.91 r13725"
   sodipodi:docname="logo-slack.svg"><metadata
     id="metadata4159"><rdf:RDF><cc:Work
         rdf:about=""><dc:format>image/svg+xml</dc:format><dc:type
           rdf:resource="http://purl.org/dc/dcmitype/StillImage" /><dc:title></dc:title></cc:Work></rdf:RDF></metadata><defs
     id="defs4157" /><sodipodi:namedview
     pagecolor="#ffffff"
     bordercolor="#666666"
     borderopacity="1"
     objecttolerance="10"
     gridtolerance="10"
     guidetolerance="10"
     inkscape:pageopacity="0"
     inkscape:pageshadow="2"
     inkscape:window-width="1920"
     inkscape:window-height="1027"
     id="namedview4155"
     showgrid="false"
     inkscape:zoom="1.8025814"
     inkscape:cx="-179.90222"
     inkscape:cy="164.33695"
     inkscape:window-x="1912"
     inkscape:window-y="-8"
     inkscape:window-maximized="1"
     inkscape:current-layer="Layer_1" /><circle
     style="opacity:0.1;fill:#414042"
     id="circle4139"
     r="75"
     cy="75.042"
     cx="74.987" /><circle
     style="fill:#282829;fill-opacity:1"
     id="circle4143"
     r="65.487"
     cy="75.042"
     cx="74.987" /><g
     transform="matrix(0.66097468,0,0,0.66097468,269.03432,45.912088)"
     id="g4744"><path
       style="fill:#fcfcfc"
       d="m -337.38606,55.65421 c -8.4486,-24.885104 -15.35604,-45.561494 -15.34987,-45.9475336 0.007,-0.4508289 0.73135,-0.9558254 2.02449,-1.4118252 3.64252,-1.2844591 50.37656,-17.1343959 69.50972,-23.5743532 16.67481,-5.612507 20.45175,-6.747361 20.45175,-6.145099 0,0.092 4.69106,13.9676784 10.42458,30.8348517 19.47752,57.3000323 20.67697,60.9726353 19.91329,60.9726353 -0.0985,0 -17.02589,5.742178 -37.6164,12.760399 -39.20142,13.361689 -52.41975,17.756565 -53.40584,17.756565 -0.40532,0 -5.41012,-14.195668 -15.95172,-45.24564 z m 52.67114,14.079686 c 5.58018,-1.453451 9.48347,-4.494764 11.61323,-9.04862 1.56492,-3.346118 1.80768,-9.352574 0.51717,-12.796138 -1.89314,-5.051631 -6.51724,-8.054771 -16.95802,-11.013464 -8.86866,-2.513186 -10.20133,-3.340692 -10.20133,-6.334385 0,-2.978372 1.99358,-4.244046 6.66197,-4.229529 3.30226,0.01026 7.35217,1.27193 10.70485,3.334856 1.17857,0.725185 2.39145,1.318519 2.69527,1.318519 0.30383,0 1.85862,-1.930923 3.4551,-4.29094 2.1711,-3.209448 2.80105,-4.452086 2.4994,-4.930296 -0.22181,-0.351648 -1.61998,-1.375039 -3.10705,-2.274209 -11.3832,-6.882966 -26.40225,-5.729103 -32.43369,2.491778 -2.1015,2.864365 -2.94454,5.624201 -2.94454,9.639438 0,6.315584 2.29681,10.214664 7.68499,13.046071 1.5859,0.833372 5.892,2.386571 9.56909,3.451554 9.34894,2.707698 10.89694,3.608674 10.89694,6.342295 0,2.816106 -2.02808,4.455019 -5.95336,4.810949 -4.59613,0.416764 -9.46812,-1.022204 -14.04994,-4.149731 -1.34805,-0.920167 -2.72292,-1.673029 -3.05527,-1.673029 -0.67743,0 -7.03455,7.422341 -7.03455,8.213277 0,0.512405 2.78822,2.729989 5.51001,4.382326 6.20395,3.766281 17.1793,5.467538 23.92973,3.709278 z"
       id="path4742"
       inkscape:connector-curvature="0" /><path
       style="fill:#8fd2de"
       d="m -322.6316,101.17087 c 0,-0.084 -4.50684,-13.387544 -10.01521,-29.563309 -5.50836,-16.175769 -12.44185,-36.753631 -15.40774,-45.728587 -4.44496,-13.450667 -5.53389,-16.3366739 -6.19693,-16.4237913 -0.44242,-0.058126 -8.43364,2.5376213 -17.75827,5.7683303 -9.32462,3.230712 -17.62613,5.638673 -17.83871,5.447204 9.33063,-37.786159 32.8888,-55.362279 52.48924,-65.413135 18.99895,-8.923617 39.54885,-13.708297 65.82482,-7.788164 3.33429,10.297435 7.15639,20.451653 10.39761,30.791708 0.57413,0.224768 -2.00905,0.491656 -7.45431,2.240193 -4.19608,1.347409 -13.35118,4.401429 -20.34465,6.786711 -6.99347,2.385278 -23.30097,7.9281219 -36.2389,12.31742826 -12.93792,4.38930634 -24.42947,8.29978034 -25.53676,8.68994394 -1.29338,0.4557243 -2.01729,0.9603648 -2.02449,1.4112742 -0.006,0.3860396 6.89847,21.0541856 15.34365,45.9292146 13.17411,38.803974 15.47821,45.251829 16.22335,45.399849 0.64286,0.1277 0.56567,0.18752 -0.29709,0.23024 -0.64107,0.0318 -1.16558,-0.0111 -1.16558,-0.0951 z m 92.43206,-31.459064 c 0.0204,-0.493761 0.12078,-0.594191 0.25608,-0.256076 0.12243,0.305963 0.10738,0.671535 -0.0335,0.812375 -0.14084,0.14084 -0.24101,-0.109497 -0.22261,-0.556299 z"
       id="path4740"
       inkscape:connector-curvature="0"
       sodipodi:nodetypes="cssssccccsssscsscccccccc" /><path
       style="fill:#e3b201"
       d="m -230.98902,66.265333 c -17.16046,-50.487793 -29.82519,-87.539242 -30.32063,-88.704892 -1.02727,-2.416934 -10.03649,-29.229273 -10.03649,-29.869603 0,-0.467127 0.79326,-0.370669 3.8579,0.46911 6.48794,1.777836 10.90901,3.468576 17.54637,6.710219 29.03345,14.179749 48.54022,40.241032 54.57743,72.916118 0.82359,4.457507 0.94016,6.526829 0.94312,16.741947 0.003,9.53206 -0.11247,11.881659 -0.6324,12.895458 -0.59454,1.159289 -1.69382,1.592341 -16.95387,6.678821 -8.97495,2.991531 -16.63258,5.539791 -17.01694,5.662792 -0.55782,0.178503 -0.95428,-0.527846 -1.96449,-3.49997 z"
       id="path4736"
       inkscape:connector-curvature="0" /><path
       style="fill:#d51c5d"
       d="m -303.55199,143.21222 c -2.21102,-0.2095 -4.13734,-0.51735 -4.2807,-0.68411 -0.4327,-0.50331 -13.54498,-39.66589 -13.53585,-40.42763 0.006,-0.52192 1.25518,-1.12016 4.77676,-2.288107 2.62255,-0.869776 23.17382,-7.877976 45.66949,-15.573775 22.49567,-7.695803 48.43509,-16.530927 57.64316,-19.633613 9.20807,-3.102681 17.07573,-5.839155 17.48368,-6.08104 0.96238,-0.570629 0.96228,-0.568739 -0.31936,5.76104 -3.04377,15.032697 -10.41958,30.538631 -20.34023,42.760645 -3.543,4.36489 -10.8932,11.63596 -15.28863,15.12403 -19.99232,15.86525 -46.00395,23.48764 -71.80832,21.04256 z"
       id="path4734"
       inkscape:connector-curvature="0"
       sodipodi:nodetypes="sccssssssss" /><path
       style="fill:#68c09c"
       d="m -315.00235,141.35631 c -29.74579,-6.82633 -54.3346,-26.0824 -67.55344,-52.902666 -6.55732,-13.304445 -9.75101,-26.010282 -10.29514,-40.958484 0.48848,-22.203971 3.08112,-26.771986 3.08112,-26.771986 0.21258,0.191469 8.4354,-2.268949 17.76002,-5.499661 9.32463,-3.230709 17.31585,-5.8264567 17.75827,-5.7683303 0.66304,0.087117 1.75197,2.9731243 6.19693,16.4237913 2.96589,8.974956 9.89938,29.552818 15.40774,45.728587 5.50837,16.175765 10.01521,29.479259 10.01521,29.563309 0,0.0841 0.2861,0.15283 0.63577,0.15283 0.34968,0 0.63577,0.36106 0.63577,0.80236 0,0.4413 2.95634,9.52449 6.56963,20.18486 3.61329,10.66037 6.56962,19.54977 6.56962,19.7542 0,0.59564 -2.01529,0.385 -6.78154,-0.70881 z"
       id="path4738"
       inkscape:connector-curvature="0"
       sodipodi:nodetypes="csccssssssssscc" /></g></svg>