<?xml version="1.0" encoding="UTF-8" standalone="no"?>
<svg
   xmlns:dc="http://purl.org/dc/elements/1.1/"
   xmlns:cc="http://creativecommons.org/ns#"
   xmlns:rdf="http://www.w3.org/1999/02/22-rdf-syntax-ns#"
   xmlns:svg="http://www.w3.org/2000/svg"
   xmlns="http://www.w3.org/2000/svg"
   xmlns:sodipodi="http://sodipodi.sourceforge.net/DTD/sodipodi-0.dtd"
   xmlns:inkscape="http://www.inkscape.org/namespaces/inkscape"
   enable-background="new 0 0 150 150"
   height="150px"
   id="Layer_1"
   version="1.1"
   viewBox="0 0 150 150"
   width="150px"
   xml:space="preserve"
   inkscape:version="0.91 r13725"
   sodipodi:docname="project-state-sleeping.svg"><metadata
     id="metadata4159"><rdf:RDF><cc:Work
         rdf:about=""><dc:format>image/svg+xml</dc:format><dc:type
           rdf:resource="http://purl.org/dc/dcmitype/StillImage" /><dc:title></dc:title></cc:Work></rdf:RDF></metadata><defs
     id="defs4157" /><sodipodi:namedview
     pagecolor="#ffffff"
     bordercolor="#666666"
     borderopacity="1"
     objecttolerance="10"
     gridtolerance="10"
     guidetolerance="10"
     inkscape:pageopacity="0"
     inkscape:pageshadow="2"
     inkscape:window-width="1920"
     inkscape:window-height="1027"
     id="namedview4155"
     showgrid="false"
     inkscape:zoom="1.4583333"
     inkscape:cx="-158.72099"
     inkscape:cy="109.00015"
     inkscape:window-x="1912"
     inkscape:window-y="-8"
     inkscape:window-maximized="1"
     inkscape:current-layer="Layer_1" /><circle
     style="opacity:1;fill:#00bcff;fill-opacity:1"
     id="circle4139"
     r="75"
     cy="75.042"
     cx="74.987" /><circle
     style="fill:#282829;fill-opacity:1"
     id="circle4143"
     r="65.487"
     cy="75.042"
     cx="74.987" /><path
     id="path4170"
     d="M 51.940599,33.005811 A 28.167823,27.73002 0 0 0 23.772776,60.73583 c 0,2.520911 0.460928,5.041822 1.126713,7.562732 l 20.895403,0 6.504207,-16.990939 c 1.536427,-4.033457 7.579705,-4.436803 9.525845,0 l 10.601345,27.074583 3.021639,-7.159387 c 0.665785,-1.663801 2.458283,-2.924257 4.660494,-2.924257 l 44.966088,0 c 0.66578,-2.52091 1.12671,-5.041821 1.12671,-7.562732 A 28.167823,27.73002 0 0 0 98.033401,33.005811 c -9.525846,0 -17.924979,4.688894 -23.046401,11.797862 C 69.865578,37.694705 61.466445,33.005811 51.940599,33.005811 l 0,0 m -23.0464,42.855484 a 5.1214224,5.0418218 0 0 0 -5.121423,5.041822 5.1214224,5.0418218 0 0 0 5.121423,5.041822 l 12.49627,0 28.475109,27.730021 c 5.121422,4.53764 5.121422,4.53764 10.242844,0 l 28.475108,-27.730021 12.49627,0 a 5.1214224,5.0418218 0 0 0 5.12142,-5.041822 5.1214224,5.0418218 0 0 0 -5.12142,-5.041822 l -38.922809,0 -4.762922,11.59619 C 75.3455,92.549725 69.455864,91.84387 67.560938,87.60874 L 57.062022,60.73583 52.145456,72.483274 c -0.768213,1.915893 -2.509497,3.378021 -4.814137,3.378021 l -18.43712,0 z"
     inkscape:connector-curvature="0"
     style="fill:#ffffff;fill-opacity:1" /></svg>